<svg width="597" height="15" viewBox="0 0 597 15" fill="none" xmlns="http://www.w3.org/2000/svg">
<path d="M4.70312 14.4766C4.94922 14.8594 5.52344 14.8594 5.76953 14.4766C9.76172 8.73438 10.5 8.13281 10.5 6C10.5 3.10156 8.14844 0.75 5.25 0.75C2.32422 0.75 0 3.10156 0 6C0 8.13281 0.710938 8.73438 4.70312 14.4766ZM5.25 8.1875C4.01953 8.1875 3.0625 7.23047 3.0625 6C3.0625 4.79688 4.01953 3.8125 5.25 3.8125C6.45312 3.8125 7.4375 4.79688 7.4375 6C7.4375 7.23047 6.45312 8.1875 5.25 8.1875ZM211.867 1.43359L209.023 0.777344C208.723 0.695312 208.395 0.859375 208.258 1.16016L206.945 4.22266C206.836 4.49609 206.918 4.79688 207.137 4.98828L208.805 6.35547C207.82 8.43359 206.098 10.1836 203.965 11.1953L202.598 9.52734C202.406 9.30859 202.105 9.22656 201.832 9.33594L198.77 10.6484C198.469 10.7852 198.332 11.1133 198.387 11.4141L199.043 14.2578C199.125 14.5586 199.371 14.75 199.699 14.75C206.699 14.75 212.387 9.08984 212.387 2.0625C212.387 1.76172 212.168 1.51562 211.867 1.43359ZM438.477 5.97266C437.848 6.46484 437.055 7.06641 434.266 9.08984C433.719 9.5 432.707 10.4023 431.75 10.4023C430.766 10.4023 429.781 9.5 429.207 9.08984C426.418 7.06641 425.625 6.46484 424.996 5.97266C424.887 5.89062 424.75 5.97266 424.75 6.10938V11.6875C424.75 12.4258 425.324 13 426.062 13H437.438C438.148 13 438.75 12.4258 438.75 11.6875V6.10938C438.75 5.97266 438.586 5.89062 438.477 5.97266ZM431.75 9.5C432.379 9.52734 433.281 8.70703 433.746 8.37891C437.383 5.75391 437.656 5.50781 438.477 4.85156C438.641 4.74219 438.75 4.55078 438.75 4.33203V3.8125C438.75 3.10156 438.148 2.5 437.438 2.5H426.062C425.324 2.5 424.75 3.10156 424.75 3.8125V4.33203C424.75 4.55078 424.832 4.74219 424.996 4.85156C425.816 5.50781 426.09 5.75391 429.727 8.37891C430.191 8.70703 431.094 9.52734 431.75 9.5Z" fill="#E8C300"/>
<path d="M23.4492 7.52734C24.2773 7.52734 24.9355 7.75977 25.4238 8.22461C25.916 8.68945 26.1621 9.32617 26.1621 10.1348C26.1621 11.0918 25.8672 11.8281 25.2773 12.3438C24.6875 12.8594 23.8438 13.1172 22.7461 13.1172C21.793 13.1172 21.0234 12.9629 20.4375 12.6543V11.0898C20.7461 11.2539 21.1055 11.3887 21.5156 11.4941C21.9258 11.5957 22.3145 11.6465 22.6816 11.6465C23.7871 11.6465 24.3398 11.1934 24.3398 10.2871C24.3398 9.42383 23.7676 8.99219 22.623 8.99219C22.416 8.99219 22.1875 9.01367 21.9375 9.05664C21.6875 9.0957 21.4844 9.13867 21.3281 9.18555L20.6074 8.79883L20.9297 4.43359H25.5762V5.96875H22.5176L22.3594 7.65039L22.5645 7.60938C22.8027 7.55469 23.0977 7.52734 23.4492 7.52734ZM30.4043 11.6934C30.7168 11.6934 31.0918 11.625 31.5293 11.4883V12.8184C31.084 13.0176 30.5371 13.1172 29.8887 13.1172C29.1738 13.1172 28.6523 12.9375 28.3242 12.5781C28 12.2148 27.8379 11.6719 27.8379 10.9492V7.79102H26.9824V7.03516L27.9668 6.4375L28.4824 5.05469H29.625V6.44922H31.459V7.79102H29.625V10.9492C29.625 11.2031 29.6953 11.3906 29.8359 11.5117C29.9805 11.6328 30.1699 11.6934 30.4043 11.6934ZM38.9062 13H37.1191V9.17383C37.1191 8.22852 36.7676 7.75586 36.0645 7.75586C35.5645 7.75586 35.2031 7.92578 34.9805 8.26562C34.7578 8.60547 34.6465 9.15625 34.6465 9.91797V13H32.8594V3.88281H34.6465V5.74023C34.6465 5.88477 34.6328 6.22461 34.6055 6.75977L34.5645 7.28711H34.6582C35.0566 6.64648 35.6895 6.32617 36.5566 6.32617C37.3262 6.32617 37.9102 6.5332 38.3086 6.94727C38.707 7.36133 38.9062 7.95508 38.9062 8.72852V13ZM44.0039 13V4.43359H45.8203V11.5H49.2949V13H44.0039ZM52.0723 9.71289C52.0723 10.3613 52.1777 10.8516 52.3887 11.1836C52.6035 11.5156 52.9512 11.6816 53.4316 11.6816C53.9082 11.6816 54.25 11.5176 54.457 11.1895C54.668 10.8574 54.7734 10.3652 54.7734 9.71289C54.7734 9.06445 54.668 8.57812 54.457 8.25391C54.2461 7.92969 53.9004 7.76758 53.4199 7.76758C52.9434 7.76758 52.5996 7.92969 52.3887 8.25391C52.1777 8.57422 52.0723 9.06055 52.0723 9.71289ZM56.6016 9.71289C56.6016 10.7793 56.3203 11.6133 55.7578 12.2148C55.1953 12.8164 54.4121 13.1172 53.4082 13.1172C52.7793 13.1172 52.2246 12.9805 51.7441 12.707C51.2637 12.4297 50.8945 12.0332 50.6367 11.5176C50.3789 11.002 50.25 10.4004 50.25 9.71289C50.25 8.64258 50.5293 7.81055 51.0879 7.2168C51.6465 6.62305 52.4316 6.32617 53.4434 6.32617C54.0723 6.32617 54.627 6.46289 55.1074 6.73633C55.5879 7.00977 55.957 7.40234 56.2148 7.91406C56.4727 8.42578 56.6016 9.02539 56.6016 9.71289ZM64.125 13H62.3379V9.17383C62.3379 8.70117 62.2539 8.34766 62.0859 8.11328C61.918 7.875 61.6504 7.75586 61.2832 7.75586C60.7832 7.75586 60.4219 7.92383 60.1992 8.25977C59.9766 8.5918 59.8652 9.14453 59.8652 9.91797V13H58.0781V6.44922H59.4434L59.6836 7.28711H59.7832C59.9824 6.9707 60.2559 6.73242 60.6035 6.57227C60.9551 6.4082 61.3535 6.32617 61.7988 6.32617C62.5605 6.32617 63.1387 6.5332 63.5332 6.94727C63.9277 7.35742 64.125 7.95117 64.125 8.72852V13ZM68.0391 13.1172C67.2695 13.1172 66.6641 12.8184 66.2227 12.2207C65.7852 11.623 65.5664 10.7949 65.5664 9.73633C65.5664 8.66211 65.7891 7.82617 66.2344 7.22852C66.6836 6.62695 67.3008 6.32617 68.0859 6.32617C68.9102 6.32617 69.5391 6.64648 69.9727 7.28711H70.0312C69.9414 6.79883 69.8965 6.36328 69.8965 5.98047V3.88281H71.6895V13H70.3184L69.9727 12.1504H69.8965C69.4902 12.7949 68.8711 13.1172 68.0391 13.1172ZM68.666 11.6934C69.123 11.6934 69.457 11.5605 69.668 11.2949C69.8828 11.0293 70 10.5781 70.0195 9.94141V9.74805C70.0195 9.04492 69.9102 8.54102 69.6914 8.23633C69.4766 7.93164 69.125 7.7793 68.6367 7.7793C68.2383 7.7793 67.9277 7.94922 67.7051 8.28906C67.4863 8.625 67.377 9.11523 67.377 9.75977C67.377 10.4043 67.4883 10.8887 67.7109 11.2129C67.9336 11.5332 68.252 11.6934 68.666 11.6934ZM74.9824 9.71289C74.9824 10.3613 75.0879 10.8516 75.2988 11.1836C75.5137 11.5156 75.8613 11.6816 76.3418 11.6816C76.8184 11.6816 77.1602 11.5176 77.3672 11.1895C77.5781 10.8574 77.6836 10.3652 77.6836 9.71289C77.6836 9.06445 77.5781 8.57812 77.3672 8.25391C77.1562 7.92969 76.8105 7.76758 76.3301 7.76758C75.8535 7.76758 75.5098 7.92969 75.2988 8.25391C75.0879 8.57422 74.9824 9.06055 74.9824 9.71289ZM79.5117 9.71289C79.5117 10.7793 79.2305 11.6133 78.668 12.2148C78.1055 12.8164 77.3223 13.1172 76.3184 13.1172C75.6895 13.1172 75.1348 12.9805 74.6543 12.707C74.1738 12.4297 73.8047 12.0332 73.5469 11.5176C73.2891 11.002 73.1602 10.4004 73.1602 9.71289C73.1602 8.64258 73.4395 7.81055 73.998 7.2168C74.5566 6.62305 75.3418 6.32617 76.3535 6.32617C76.9824 6.32617 77.5371 6.46289 78.0176 6.73633C78.498 7.00977 78.8672 7.40234 79.125 7.91406C79.3828 8.42578 79.5117 9.02539 79.5117 9.71289ZM87.0352 13H85.248V9.17383C85.248 8.70117 85.1641 8.34766 84.9961 8.11328C84.8281 7.875 84.5605 7.75586 84.1934 7.75586C83.6934 7.75586 83.332 7.92383 83.1094 8.25977C82.8867 8.5918 82.7754 9.14453 82.7754 9.91797V13H80.9883V6.44922H82.3535L82.5938 7.28711H82.6934C82.8926 6.9707 83.166 6.73242 83.5137 6.57227C83.8652 6.4082 84.2637 6.32617 84.709 6.32617C85.4707 6.32617 86.0488 6.5332 86.4434 6.94727C86.8379 7.35742 87.0352 7.95117 87.0352 8.72852V13ZM92.1328 4.43359H94.7988C96.0137 4.43359 96.8945 4.60742 97.4414 4.95508C97.9922 5.29883 98.2676 5.84766 98.2676 6.60156C98.2676 7.11328 98.1465 7.5332 97.9043 7.86133C97.666 8.18945 97.3477 8.38672 96.9492 8.45312V8.51172C97.4922 8.63281 97.8828 8.85938 98.1211 9.19141C98.3633 9.52344 98.4844 9.96484 98.4844 10.5156C98.4844 11.2969 98.2012 11.9062 97.6348 12.3438C97.0723 12.7812 96.3066 13 95.3379 13H92.1328V4.43359ZM93.9492 7.82617H95.0039C95.4961 7.82617 95.8516 7.75 96.0703 7.59766C96.293 7.44531 96.4043 7.19336 96.4043 6.8418C96.4043 6.51367 96.2832 6.2793 96.041 6.13867C95.8027 5.99414 95.4238 5.92188 94.9043 5.92188H93.9492V7.82617ZM93.9492 9.26758V11.5H95.1328C95.6328 11.5 96.002 11.4043 96.2402 11.2129C96.4785 11.0215 96.5977 10.7285 96.5977 10.334C96.5977 9.62305 96.0898 9.26758 95.0742 9.26758H93.9492ZM101.479 9.71289C101.479 10.3613 101.584 10.8516 101.795 11.1836C102.01 11.5156 102.357 11.6816 102.838 11.6816C103.314 11.6816 103.656 11.5176 103.863 11.1895C104.074 10.8574 104.18 10.3652 104.18 9.71289C104.18 9.06445 104.074 8.57812 103.863 8.25391C103.652 7.92969 103.307 7.76758 102.826 7.76758C102.35 7.76758 102.006 7.92969 101.795 8.25391C101.584 8.57422 101.479 9.06055 101.479 9.71289ZM106.008 9.71289C106.008 10.7793 105.727 11.6133 105.164 12.2148C104.602 12.8164 103.818 13.1172 102.814 13.1172C102.186 13.1172 101.631 12.9805 101.15 12.707C100.67 12.4297 100.301 12.0332 100.043 11.5176C99.7852 11.002 99.6562 10.4004 99.6562 9.71289C99.6562 8.64258 99.9355 7.81055 100.494 7.2168C101.053 6.62305 101.838 6.32617 102.85 6.32617C103.479 6.32617 104.033 6.46289 104.514 6.73633C104.994 7.00977 105.363 7.40234 105.621 7.91406C105.879 8.42578 106.008 9.02539 106.008 9.71289ZM112.125 13L111.885 12.1621H111.791C111.6 12.4668 111.328 12.7031 110.977 12.8711C110.625 13.0352 110.225 13.1172 109.775 13.1172C109.006 13.1172 108.426 12.9121 108.035 12.502C107.645 12.0879 107.449 11.4941 107.449 10.7207V6.44922H109.236V10.2754C109.236 10.748 109.32 11.1035 109.488 11.3418C109.656 11.5762 109.924 11.6934 110.291 11.6934C110.791 11.6934 111.152 11.5273 111.375 11.1953C111.598 10.8594 111.709 10.3047 111.709 9.53125V6.44922H113.496V13H112.125ZM117.158 13H115.371V3.88281H117.158V13ZM121.752 7.59766C121.373 7.59766 121.076 7.71875 120.861 7.96094C120.646 8.19922 120.523 8.53906 120.492 8.98047H123C122.992 8.53906 122.877 8.19922 122.654 7.96094C122.432 7.71875 122.131 7.59766 121.752 7.59766ZM122.004 13.1172C120.949 13.1172 120.125 12.8262 119.531 12.2441C118.938 11.6621 118.641 10.8379 118.641 9.77148C118.641 8.67383 118.914 7.82617 119.461 7.22852C120.012 6.62695 120.771 6.32617 121.74 6.32617C122.666 6.32617 123.387 6.58984 123.902 7.11719C124.418 7.64453 124.676 8.37305 124.676 9.30273V10.1699H120.451C120.471 10.6777 120.621 11.0742 120.902 11.3594C121.184 11.6445 121.578 11.7871 122.086 11.7871C122.48 11.7871 122.854 11.7461 123.205 11.6641C123.557 11.582 123.924 11.4512 124.307 11.2715V12.6543C123.994 12.8105 123.66 12.9258 123.305 13C122.949 13.0781 122.516 13.1172 122.004 13.1172ZM127.688 13L125.191 6.44922H127.061L128.326 10.1816C128.467 10.6543 128.555 11.1016 128.59 11.5234H128.625C128.645 11.1484 128.732 10.7012 128.889 10.1816L130.148 6.44922H132.018L129.521 13H127.688ZM137.121 13L136.775 12.1094H136.729C136.428 12.4883 136.117 12.752 135.797 12.9004C135.48 13.0449 135.066 13.1172 134.555 13.1172C133.926 13.1172 133.43 12.9375 133.066 12.5781C132.707 12.2188 132.527 11.707 132.527 11.043C132.527 10.3477 132.77 9.83594 133.254 9.50781C133.742 9.17578 134.477 8.99219 135.457 8.95703L136.594 8.92188V8.63477C136.594 7.9707 136.254 7.63867 135.574 7.63867C135.051 7.63867 134.436 7.79688 133.729 8.11328L133.137 6.90625C133.891 6.51172 134.727 6.31445 135.645 6.31445C136.523 6.31445 137.197 6.50586 137.666 6.88867C138.135 7.27148 138.369 7.85352 138.369 8.63477V13H137.121ZM136.594 9.96484L135.902 9.98828C135.383 10.0039 134.996 10.0977 134.742 10.2695C134.488 10.4414 134.361 10.7031 134.361 11.0547C134.361 11.5586 134.65 11.8105 135.229 11.8105C135.643 11.8105 135.973 11.6914 136.219 11.4531C136.469 11.2148 136.594 10.8984 136.594 10.5039V9.96484ZM143.871 6.32617C144.113 6.32617 144.314 6.34375 144.475 6.37891L144.34 8.05469C144.195 8.01562 144.02 7.99609 143.812 7.99609C143.242 7.99609 142.797 8.14258 142.477 8.43555C142.16 8.72852 142.002 9.13867 142.002 9.66602V13H140.215V6.44922H141.568L141.832 7.55078H141.92C142.123 7.18359 142.396 6.88867 142.74 6.66602C143.088 6.43945 143.465 6.32617 143.871 6.32617ZM147.738 13.1172C146.969 13.1172 146.363 12.8184 145.922 12.2207C145.484 11.623 145.266 10.7949 145.266 9.73633C145.266 8.66211 145.488 7.82617 145.934 7.22852C146.383 6.62695 147 6.32617 147.785 6.32617C148.609 6.32617 149.238 6.64648 149.672 7.28711H149.73C149.641 6.79883 149.596 6.36328 149.596 5.98047V3.88281H151.389V13H150.018L149.672 12.1504H149.596C149.189 12.7949 148.57 13.1172 147.738 13.1172ZM148.365 11.6934C148.822 11.6934 149.156 11.5605 149.367 11.2949C149.582 11.0293 149.699 10.5781 149.719 9.94141V9.74805C149.719 9.04492 149.609 8.54102 149.391 8.23633C149.176 7.93164 148.824 7.7793 148.336 7.7793C147.938 7.7793 147.627 7.94922 147.404 8.28906C147.186 8.625 147.076 9.11523 147.076 9.75977C147.076 10.4043 147.188 10.8887 147.41 11.2129C147.633 11.5332 147.951 11.6934 148.365 11.6934ZM155.01 11.7402C154.807 12.5293 154.463 13.4648 153.979 14.5469H152.689C152.943 13.5078 153.141 12.5273 153.281 11.6055H154.922L155.01 11.7402ZM166.969 4.43359V9.97656C166.969 10.6094 166.826 11.1641 166.541 11.6406C166.26 12.1172 165.852 12.4824 165.316 12.7363C164.781 12.9902 164.148 13.1172 163.418 13.1172C162.316 13.1172 161.461 12.8359 160.852 12.2734C160.242 11.707 159.938 10.9336 159.938 9.95312V4.43359H161.748V9.67773C161.748 10.3379 161.881 10.8223 162.146 11.1309C162.412 11.4395 162.852 11.5938 163.465 11.5938C164.059 11.5938 164.488 11.4395 164.754 11.1309C165.023 10.8184 165.158 10.3301 165.158 9.66602V4.43359H166.969ZM168.674 12.1621C168.674 11.834 168.762 11.5859 168.938 11.418C169.113 11.25 169.369 11.166 169.705 11.166C170.029 11.166 170.279 11.252 170.455 11.4238C170.635 11.5957 170.725 11.8418 170.725 12.1621C170.725 12.4707 170.635 12.7148 170.455 12.8945C170.275 13.0703 170.025 13.1582 169.705 13.1582C169.377 13.1582 169.123 13.0723 168.943 12.9004C168.764 12.7246 168.674 12.4785 168.674 12.1621ZM179.379 13H177.316L175.072 9.39062L174.305 9.94141V13H172.488V4.43359H174.305V8.35352L175.02 7.3457L177.34 4.43359H179.355L176.367 8.22461L179.379 13ZM180.064 12.1621C180.064 11.834 180.152 11.5859 180.328 11.418C180.504 11.25 180.76 11.166 181.096 11.166C181.42 11.166 181.67 11.252 181.846 11.4238C182.025 11.5957 182.115 11.8418 182.115 12.1621C182.115 12.4707 182.025 12.7148 181.846 12.8945C181.666 13.0703 181.416 13.1582 181.096 13.1582C180.768 13.1582 180.514 13.0723 180.334 12.9004C180.154 12.7246 180.064 12.4785 180.064 12.1621ZM223.756 9.41406H221.488V8.13086H223.756V5.8457H225.039V8.13086H227.307V9.41406H225.039V11.6699H223.756V9.41406ZM234.49 11.2246H233.459V13H231.689V11.2246H228.033V9.96484L231.789 4.43359H233.459V9.81836H234.49V11.2246ZM231.689 9.81836V8.36523C231.689 8.12305 231.699 7.77148 231.719 7.31055C231.738 6.84961 231.754 6.58203 231.766 6.50781H231.719C231.574 6.82812 231.4 7.14062 231.197 7.44531L229.627 9.81836H231.689ZM241.105 8.7168C241.105 10.2129 240.859 11.3203 240.367 12.0391C239.879 12.7578 239.125 13.1172 238.105 13.1172C237.117 13.1172 236.371 12.7461 235.867 12.0039C235.367 11.2617 235.117 10.166 235.117 8.7168C235.117 7.20508 235.361 6.0918 235.85 5.37695C236.338 4.6582 237.09 4.29883 238.105 4.29883C239.094 4.29883 239.84 4.67383 240.344 5.42383C240.852 6.17383 241.105 7.27148 241.105 8.7168ZM236.916 8.7168C236.916 9.76758 237.006 10.5215 237.186 10.9785C237.369 11.4316 237.676 11.6582 238.105 11.6582C238.527 11.6582 238.832 11.4277 239.02 10.9668C239.207 10.5059 239.301 9.75586 239.301 8.7168C239.301 7.66602 239.205 6.91211 239.014 6.45508C238.826 5.99414 238.523 5.76367 238.105 5.76367C237.68 5.76367 237.375 5.99414 237.191 6.45508C237.008 6.91211 236.916 7.66602 236.916 8.7168ZM245.986 13L249.203 5.96875H244.979V4.44531H251.125V5.58203L247.885 13H245.986ZM257.98 13H251.992V11.7402L254.143 9.56641C254.779 8.91406 255.195 8.46289 255.391 8.21289C255.586 7.95898 255.727 7.72461 255.812 7.50977C255.898 7.29492 255.941 7.07227 255.941 6.8418C255.941 6.49805 255.846 6.24219 255.654 6.07422C255.467 5.90625 255.215 5.82227 254.898 5.82227C254.566 5.82227 254.244 5.89844 253.932 6.05078C253.619 6.20312 253.293 6.41992 252.953 6.70117L251.969 5.53516C252.391 5.17578 252.74 4.92188 253.018 4.77344C253.295 4.625 253.598 4.51172 253.926 4.43359C254.254 4.35156 254.621 4.31055 255.027 4.31055C255.562 4.31055 256.035 4.4082 256.445 4.60352C256.855 4.79883 257.174 5.07227 257.4 5.42383C257.627 5.77539 257.74 6.17773 257.74 6.63086C257.74 7.02539 257.67 7.39648 257.529 7.74414C257.393 8.08789 257.178 8.44141 256.885 8.80469C256.596 9.16797 256.084 9.68555 255.35 10.3574L254.248 11.3945V11.4766H257.98V13ZM264.801 8.08984C264.801 9.77734 264.445 11.0371 263.734 11.8691C263.023 12.7012 261.947 13.1172 260.506 13.1172C259.998 13.1172 259.613 13.0898 259.352 13.0352V11.582C259.68 11.6641 260.023 11.7051 260.383 11.7051C260.988 11.7051 261.486 11.6172 261.877 11.4414C262.268 11.2617 262.566 10.9824 262.773 10.6035C262.98 10.2207 263.1 9.69531 263.131 9.02734H263.061C262.834 9.39453 262.572 9.65234 262.275 9.80078C261.979 9.94922 261.607 10.0234 261.162 10.0234C260.416 10.0234 259.828 9.78516 259.398 9.30859C258.969 8.82812 258.754 8.16211 258.754 7.31055C258.754 6.39258 259.014 5.66797 259.533 5.13672C260.057 4.60156 260.768 4.33398 261.666 4.33398C262.299 4.33398 262.852 4.48242 263.324 4.7793C263.801 5.07617 264.166 5.50781 264.42 6.07422C264.674 6.63672 264.801 7.30859 264.801 8.08984ZM261.701 5.78711C261.326 5.78711 261.033 5.91602 260.822 6.17383C260.611 6.43164 260.506 6.80273 260.506 7.28711C260.506 7.70117 260.602 8.0293 260.793 8.27148C260.984 8.51367 261.275 8.63477 261.666 8.63477C262.033 8.63477 262.348 8.51562 262.609 8.27734C262.871 8.03516 263.002 7.75781 263.002 7.44531C263.002 6.98047 262.879 6.58789 262.633 6.26758C262.391 5.94727 262.08 5.78711 261.701 5.78711ZM273.297 13H271.486V8.04297L271.504 7.22852L271.533 6.33789C271.232 6.63867 271.023 6.83594 270.906 6.92969L269.922 7.7207L269.049 6.63086L271.809 4.43359H273.297V13ZM281.33 6.34961C281.33 6.88477 281.168 7.33984 280.844 7.71484C280.52 8.08984 280.064 8.34766 279.479 8.48828V8.52344C280.17 8.60938 280.693 8.82031 281.049 9.15625C281.404 9.48828 281.582 9.9375 281.582 10.5039C281.582 11.3281 281.283 11.9707 280.686 12.4316C280.088 12.8887 279.234 13.1172 278.125 13.1172C277.195 13.1172 276.371 12.9629 275.652 12.6543V11.1133C275.984 11.2812 276.35 11.418 276.748 11.5234C277.146 11.6289 277.541 11.6816 277.932 11.6816C278.529 11.6816 278.971 11.5801 279.256 11.377C279.541 11.1738 279.684 10.8477 279.684 10.3984C279.684 9.99609 279.52 9.71094 279.191 9.54297C278.863 9.375 278.34 9.29102 277.621 9.29102H276.971V7.90234H277.633C278.297 7.90234 278.781 7.81641 279.086 7.64453C279.395 7.46875 279.549 7.16992 279.549 6.74805C279.549 6.09961 279.143 5.77539 278.33 5.77539C278.049 5.77539 277.762 5.82227 277.469 5.91602C277.18 6.00977 276.857 6.17188 276.502 6.40234L275.664 5.1543C276.445 4.5918 277.377 4.31055 278.459 4.31055C279.346 4.31055 280.045 4.49023 280.557 4.84961C281.072 5.20898 281.33 5.70898 281.33 6.34961ZM287.008 13H285.197V8.04297L285.215 7.22852L285.244 6.33789C284.943 6.63867 284.734 6.83594 284.617 6.92969L283.633 7.7207L282.76 6.63086L285.52 4.43359H287.008V13ZM292.445 9.36133C292.445 7.66602 292.803 6.4043 293.518 5.57617C294.236 4.74805 295.311 4.33398 296.74 4.33398C297.229 4.33398 297.611 4.36328 297.889 4.42188V5.86914C297.541 5.79102 297.197 5.75195 296.857 5.75195C296.236 5.75195 295.729 5.8457 295.334 6.0332C294.943 6.2207 294.65 6.49805 294.455 6.86523C294.26 7.23242 294.145 7.75391 294.109 8.42969H294.186C294.572 7.76562 295.191 7.43359 296.043 7.43359C296.809 7.43359 297.408 7.67383 297.842 8.1543C298.275 8.63477 298.492 9.29883 298.492 10.1465C298.492 11.0605 298.234 11.7852 297.719 12.3203C297.203 12.8516 296.488 13.1172 295.574 13.1172C294.941 13.1172 294.389 12.9707 293.916 12.6777C293.447 12.3848 293.084 11.957 292.826 11.3945C292.572 10.832 292.445 10.1543 292.445 9.36133ZM295.539 11.6699C295.926 11.6699 296.223 11.541 296.43 11.2832C296.637 11.0215 296.74 10.6504 296.74 10.1699C296.74 9.75195 296.643 9.42383 296.447 9.18555C296.256 8.94336 295.965 8.82227 295.574 8.82227C295.207 8.82227 294.893 8.94141 294.631 9.17969C294.373 9.41797 294.244 9.69531 294.244 10.0117C294.244 10.4766 294.365 10.8691 294.607 11.1895C294.854 11.5098 295.164 11.6699 295.539 11.6699ZM305.014 6.34961C305.014 6.88477 304.852 7.33984 304.527 7.71484C304.203 8.08984 303.748 8.34766 303.162 8.48828V8.52344C303.854 8.60938 304.377 8.82031 304.732 9.15625C305.088 9.48828 305.266 9.9375 305.266 10.5039C305.266 11.3281 304.967 11.9707 304.369 12.4316C303.771 12.8887 302.918 13.1172 301.809 13.1172C300.879 13.1172 300.055 12.9629 299.336 12.6543V11.1133C299.668 11.2812 300.033 11.418 300.432 11.5234C300.83 11.6289 301.225 11.6816 301.615 11.6816C302.213 11.6816 302.654 11.5801 302.939 11.377C303.225 11.1738 303.367 10.8477 303.367 10.3984C303.367 9.99609 303.203 9.71094 302.875 9.54297C302.547 9.375 302.023 9.29102 301.305 9.29102H300.654V7.90234H301.316C301.98 7.90234 302.465 7.81641 302.77 7.64453C303.078 7.46875 303.232 7.16992 303.232 6.74805C303.232 6.09961 302.826 5.77539 302.014 5.77539C301.732 5.77539 301.445 5.82227 301.152 5.91602C300.863 6.00977 300.541 6.17188 300.186 6.40234L299.348 5.1543C300.129 4.5918 301.061 4.31055 302.143 4.31055C303.029 4.31055 303.729 4.49023 304.24 4.84961C304.756 5.20898 305.014 5.70898 305.014 6.34961ZM307.064 13L310.281 5.96875H306.057V4.44531H312.203V5.58203L308.963 13H307.064ZM317.488 4.43359L314.295 13H312.672L315.865 4.43359H317.488ZM320.33 9.41406H318.062V8.13086H320.33V5.8457H321.613V8.13086H323.881V9.41406H321.613V11.6699H320.33V9.41406ZM331.064 11.2246H330.033V13H328.264V11.2246H324.607V9.96484L328.363 4.43359H330.033V9.81836H331.064V11.2246ZM328.264 9.81836V8.36523C328.264 8.12305 328.273 7.77148 328.293 7.31055C328.312 6.84961 328.328 6.58203 328.34 6.50781H328.293C328.148 6.82812 327.975 7.14062 327.771 7.44531L326.201 9.81836H328.264ZM337.68 8.7168C337.68 10.2129 337.434 11.3203 336.941 12.0391C336.453 12.7578 335.699 13.1172 334.68 13.1172C333.691 13.1172 332.945 12.7461 332.441 12.0039C331.941 11.2617 331.691 10.166 331.691 8.7168C331.691 7.20508 331.936 6.0918 332.424 5.37695C332.912 4.6582 333.664 4.29883 334.68 4.29883C335.668 4.29883 336.414 4.67383 336.918 5.42383C337.426 6.17383 337.68 7.27148 337.68 8.7168ZM333.49 8.7168C333.49 9.76758 333.58 10.5215 333.76 10.9785C333.943 11.4316 334.25 11.6582 334.68 11.6582C335.102 11.6582 335.406 11.4277 335.594 10.9668C335.781 10.5059 335.875 9.75586 335.875 8.7168C335.875 7.66602 335.779 6.91211 335.588 6.45508C335.4 5.99414 335.098 5.76367 334.68 5.76367C334.254 5.76367 333.949 5.99414 333.766 6.45508C333.582 6.91211 333.49 7.66602 333.49 8.7168ZM342.561 13L345.777 5.96875H341.553V4.44531H347.699V5.58203L344.459 13H342.561ZM354.555 13H348.566V11.7402L350.717 9.56641C351.354 8.91406 351.77 8.46289 351.965 8.21289C352.16 7.95898 352.301 7.72461 352.387 7.50977C352.473 7.29492 352.516 7.07227 352.516 6.8418C352.516 6.49805 352.42 6.24219 352.229 6.07422C352.041 5.90625 351.789 5.82227 351.473 5.82227C351.141 5.82227 350.818 5.89844 350.506 6.05078C350.193 6.20312 349.867 6.41992 349.527 6.70117L348.543 5.53516C348.965 5.17578 349.314 4.92188 349.592 4.77344C349.869 4.625 350.172 4.51172 350.5 4.43359C350.828 4.35156 351.195 4.31055 351.602 4.31055C352.137 4.31055 352.609 4.4082 353.02 4.60352C353.43 4.79883 353.748 5.07227 353.975 5.42383C354.201 5.77539 354.314 6.17773 354.314 6.63086C354.314 7.02539 354.244 7.39648 354.104 7.74414C353.967 8.08789 353.752 8.44141 353.459 8.80469C353.17 9.16797 352.658 9.68555 351.924 10.3574L350.822 11.3945V11.4766H354.555V13ZM355.363 9.36133C355.363 7.66602 355.721 6.4043 356.436 5.57617C357.154 4.74805 358.229 4.33398 359.658 4.33398C360.146 4.33398 360.529 4.36328 360.807 4.42188V5.86914C360.459 5.79102 360.115 5.75195 359.775 5.75195C359.154 5.75195 358.646 5.8457 358.252 6.0332C357.861 6.2207 357.568 6.49805 357.373 6.86523C357.178 7.23242 357.062 7.75391 357.027 8.42969H357.104C357.49 7.76562 358.109 7.43359 358.961 7.43359C359.727 7.43359 360.326 7.67383 360.76 8.1543C361.193 8.63477 361.41 9.29883 361.41 10.1465C361.41 11.0605 361.152 11.7852 360.637 12.3203C360.121 12.8516 359.406 13.1172 358.492 13.1172C357.859 13.1172 357.307 12.9707 356.834 12.6777C356.365 12.3848 356.002 11.957 355.744 11.3945C355.49 10.832 355.363 10.1543 355.363 9.36133ZM358.457 11.6699C358.844 11.6699 359.141 11.541 359.348 11.2832C359.555 11.0215 359.658 10.6504 359.658 10.1699C359.658 9.75195 359.561 9.42383 359.365 9.18555C359.174 8.94336 358.883 8.82227 358.492 8.82227C358.125 8.82227 357.811 8.94141 357.549 9.17969C357.291 9.41797 357.162 9.69531 357.162 10.0117C357.162 10.4766 357.283 10.8691 357.525 11.1895C357.771 11.5098 358.082 11.6699 358.457 11.6699ZM371.576 11.2246H370.545V13H368.775V11.2246H365.119V9.96484L368.875 4.43359H370.545V9.81836H371.576V11.2246ZM368.775 9.81836V8.36523C368.775 8.12305 368.785 7.77148 368.805 7.31055C368.824 6.84961 368.84 6.58203 368.852 6.50781H368.805C368.66 6.82812 368.486 7.14062 368.283 7.44531L366.713 9.81836H368.775ZM375.367 7.52734C376.195 7.52734 376.854 7.75977 377.342 8.22461C377.834 8.68945 378.08 9.32617 378.08 10.1348C378.08 11.0918 377.785 11.8281 377.195 12.3438C376.605 12.8594 375.762 13.1172 374.664 13.1172C373.711 13.1172 372.941 12.9629 372.355 12.6543V11.0898C372.664 11.2539 373.023 11.3887 373.434 11.4941C373.844 11.5957 374.232 11.6465 374.6 11.6465C375.705 11.6465 376.258 11.1934 376.258 10.2871C376.258 9.42383 375.686 8.99219 374.541 8.99219C374.334 8.99219 374.105 9.01367 373.855 9.05664C373.605 9.0957 373.402 9.13867 373.246 9.18555L372.525 8.79883L372.848 4.43359H377.494V5.96875H374.436L374.277 7.65039L374.482 7.60938C374.721 7.55469 375.016 7.52734 375.367 7.52734ZM382.059 4.32227C382.879 4.32227 383.539 4.50977 384.039 4.88477C384.543 5.25586 384.795 5.75781 384.795 6.39062C384.795 6.82812 384.674 7.21875 384.432 7.5625C384.189 7.90234 383.799 8.20703 383.26 8.47656C383.9 8.82031 384.359 9.17969 384.637 9.55469C384.918 9.92578 385.059 10.334 385.059 10.7793C385.059 11.4824 384.783 12.0488 384.232 12.4785C383.682 12.9043 382.957 13.1172 382.059 13.1172C381.121 13.1172 380.385 12.918 379.85 12.5195C379.314 12.1211 379.047 11.5566 379.047 10.8262C379.047 10.3379 379.176 9.9043 379.434 9.52539C379.695 9.14648 380.113 8.8125 380.688 8.52344C380.199 8.21484 379.848 7.88477 379.633 7.5332C379.418 7.18164 379.311 6.79688 379.311 6.37891C379.311 5.76562 379.564 5.26953 380.072 4.89062C380.58 4.51172 381.242 4.32227 382.059 4.32227ZM380.723 10.7207C380.723 11.0566 380.84 11.3184 381.074 11.5059C381.309 11.6934 381.629 11.7871 382.035 11.7871C382.484 11.7871 382.82 11.6914 383.043 11.5C383.266 11.3047 383.377 11.0488 383.377 10.7324C383.377 10.4707 383.266 10.2266 383.043 10C382.824 9.76953 382.467 9.52539 381.971 9.26758C381.139 9.65039 380.723 10.1348 380.723 10.7207ZM382.047 5.64648C381.738 5.64648 381.488 5.72656 381.297 5.88672C381.109 6.04297 381.016 6.25391 381.016 6.51953C381.016 6.75391 381.09 6.96484 381.238 7.15234C381.391 7.33594 381.664 7.52539 382.059 7.7207C382.441 7.54102 382.709 7.35742 382.861 7.16992C383.014 6.98242 383.09 6.76562 383.09 6.51953C383.09 6.25 382.992 6.03711 382.797 5.88086C382.602 5.72461 382.352 5.64648 382.047 5.64648ZM389.928 13L393.145 5.96875H388.92V4.44531H395.066V5.58203L391.826 13H389.928ZM398.887 4.32227C399.707 4.32227 400.367 4.50977 400.867 4.88477C401.371 5.25586 401.623 5.75781 401.623 6.39062C401.623 6.82812 401.502 7.21875 401.26 7.5625C401.018 7.90234 400.627 8.20703 400.088 8.47656C400.729 8.82031 401.188 9.17969 401.465 9.55469C401.746 9.92578 401.887 10.334 401.887 10.7793C401.887 11.4824 401.611 12.0488 401.061 12.4785C400.51 12.9043 399.785 13.1172 398.887 13.1172C397.949 13.1172 397.213 12.918 396.678 12.5195C396.143 12.1211 395.875 11.5566 395.875 10.8262C395.875 10.3379 396.004 9.9043 396.262 9.52539C396.523 9.14648 396.941 8.8125 397.516 8.52344C397.027 8.21484 396.676 7.88477 396.461 7.5332C396.246 7.18164 396.139 6.79688 396.139 6.37891C396.139 5.76562 396.393 5.26953 396.9 4.89062C397.408 4.51172 398.07 4.32227 398.887 4.32227ZM397.551 10.7207C397.551 11.0566 397.668 11.3184 397.902 11.5059C398.137 11.6934 398.457 11.7871 398.863 11.7871C399.312 11.7871 399.648 11.6914 399.871 11.5C400.094 11.3047 400.205 11.0488 400.205 10.7324C400.205 10.4707 400.094 10.2266 399.871 10C399.652 9.76953 399.295 9.52539 398.799 9.26758C397.967 9.65039 397.551 10.1348 397.551 10.7207ZM398.875 5.64648C398.566 5.64648 398.316 5.72656 398.125 5.88672C397.938 6.04297 397.844 6.25391 397.844 6.51953C397.844 6.75391 397.918 6.96484 398.066 7.15234C398.219 7.33594 398.492 7.52539 398.887 7.7207C399.27 7.54102 399.537 7.35742 399.689 7.16992C399.842 6.98242 399.918 6.76562 399.918 6.51953C399.918 6.25 399.82 6.03711 399.625 5.88086C399.43 5.72461 399.18 5.64648 398.875 5.64648ZM408.777 13H402.789V11.7402L404.939 9.56641C405.576 8.91406 405.992 8.46289 406.188 8.21289C406.383 7.95898 406.523 7.72461 406.609 7.50977C406.695 7.29492 406.738 7.07227 406.738 6.8418C406.738 6.49805 406.643 6.24219 406.451 6.07422C406.264 5.90625 406.012 5.82227 405.695 5.82227C405.363 5.82227 405.041 5.89844 404.729 6.05078C404.416 6.20312 404.09 6.41992 403.75 6.70117L402.766 5.53516C403.188 5.17578 403.537 4.92188 403.814 4.77344C404.092 4.625 404.395 4.51172 404.723 4.43359C405.051 4.35156 405.418 4.31055 405.824 4.31055C406.359 4.31055 406.832 4.4082 407.242 4.60352C407.652 4.79883 407.971 5.07227 408.197 5.42383C408.424 5.77539 408.537 6.17773 408.537 6.63086C408.537 7.02539 408.467 7.39648 408.326 7.74414C408.189 8.08789 407.975 8.44141 407.682 8.80469C407.393 9.16797 406.881 9.68555 406.146 10.3574L405.045 11.3945V11.4766H408.777V13ZM456.721 9.71289C456.721 10.3613 456.826 10.8516 457.037 11.1836C457.252 11.5156 457.6 11.6816 458.08 11.6816C458.557 11.6816 458.898 11.5176 459.105 11.1895C459.316 10.8574 459.422 10.3652 459.422 9.71289C459.422 9.06445 459.316 8.57812 459.105 8.25391C458.895 7.92969 458.549 7.76758 458.068 7.76758C457.592 7.76758 457.248 7.92969 457.037 8.25391C456.826 8.57422 456.721 9.06055 456.721 9.71289ZM461.25 9.71289C461.25 10.7793 460.969 11.6133 460.406 12.2148C459.844 12.8164 459.061 13.1172 458.057 13.1172C457.428 13.1172 456.873 12.9805 456.393 12.707C455.912 12.4297 455.543 12.0332 455.285 11.5176C455.027 11.002 454.898 10.4004 454.898 9.71289C454.898 8.64258 455.178 7.81055 455.736 7.2168C456.295 6.62305 457.08 6.32617 458.092 6.32617C458.721 6.32617 459.275 6.46289 459.756 6.73633C460.236 7.00977 460.605 7.40234 460.863 7.91406C461.121 8.42578 461.25 9.02539 461.25 9.71289ZM466.348 7.79102H464.801V13H463.014V7.79102H462.029V6.92969L463.014 6.44922V5.96875C463.014 5.22266 463.197 4.67773 463.564 4.33398C463.932 3.99023 464.52 3.81836 465.328 3.81836C465.945 3.81836 466.494 3.91016 466.975 4.09375L466.518 5.40625C466.158 5.29297 465.826 5.23633 465.521 5.23633C465.268 5.23633 465.084 5.3125 464.971 5.46484C464.857 5.61328 464.801 5.80469 464.801 6.03906V6.44922H466.348V7.79102ZM470.994 7.79102H469.447V13H467.66V7.79102H466.676V6.92969L467.66 6.44922V5.96875C467.66 5.22266 467.844 4.67773 468.211 4.33398C468.578 3.99023 469.166 3.81836 469.975 3.81836C470.592 3.81836 471.141 3.91016 471.621 4.09375L471.164 5.40625C470.805 5.29297 470.473 5.23633 470.168 5.23633C469.914 5.23633 469.73 5.3125 469.617 5.46484C469.504 5.61328 469.447 5.80469 469.447 6.03906V6.44922H470.994V7.79102ZM471.926 4.75586C471.926 4.17383 472.25 3.88281 472.898 3.88281C473.547 3.88281 473.871 4.17383 473.871 4.75586C473.871 5.0332 473.789 5.25 473.625 5.40625C473.465 5.55859 473.223 5.63477 472.898 5.63477C472.25 5.63477 471.926 5.3418 471.926 4.75586ZM473.789 13H472.002V6.44922H473.789V13ZM478.324 13.1172C476.285 13.1172 475.266 11.998 475.266 9.75977C475.266 8.64648 475.543 7.79688 476.098 7.21094C476.652 6.62109 477.447 6.32617 478.482 6.32617C479.24 6.32617 479.92 6.47461 480.521 6.77148L479.994 8.1543C479.713 8.04102 479.451 7.94922 479.209 7.87891C478.967 7.80469 478.725 7.76758 478.482 7.76758C477.553 7.76758 477.088 8.42773 477.088 9.74805C477.088 11.0293 477.553 11.6699 478.482 11.6699C478.826 11.6699 479.145 11.625 479.438 11.5352C479.73 11.4414 480.023 11.2969 480.316 11.1016V12.6309C480.027 12.8145 479.734 12.9414 479.438 13.0117C479.145 13.082 478.773 13.1172 478.324 13.1172ZM484.553 7.59766C484.174 7.59766 483.877 7.71875 483.662 7.96094C483.447 8.19922 483.324 8.53906 483.293 8.98047H485.801C485.793 8.53906 485.678 8.19922 485.455 7.96094C485.232 7.71875 484.932 7.59766 484.553 7.59766ZM484.805 13.1172C483.75 13.1172 482.926 12.8262 482.332 12.2441C481.738 11.6621 481.441 10.8379 481.441 9.77148C481.441 8.67383 481.715 7.82617 482.262 7.22852C482.812 6.62695 483.572 6.32617 484.541 6.32617C485.467 6.32617 486.188 6.58984 486.703 7.11719C487.219 7.64453 487.477 8.37305 487.477 9.30273V10.1699H483.252C483.271 10.6777 483.422 11.0742 483.703 11.3594C483.984 11.6445 484.379 11.7871 484.887 11.7871C485.281 11.7871 485.654 11.7461 486.006 11.6641C486.357 11.582 486.725 11.4512 487.107 11.2715V12.6543C486.795 12.8105 486.461 12.9258 486.105 13C485.75 13.0781 485.316 13.1172 484.805 13.1172ZM498.158 8.59375C498.158 9.15625 498.068 9.67188 497.889 10.1406C497.709 10.6055 497.455 10.9707 497.127 11.2363C496.799 11.502 496.418 11.6348 495.984 11.6348C495.695 11.6348 495.439 11.5664 495.217 11.4297C494.994 11.2891 494.834 11.1055 494.736 10.8789H494.643C494.221 11.3828 493.684 11.6348 493.031 11.6348C492.34 11.6348 491.795 11.4277 491.396 11.0137C490.998 10.5957 490.799 10.0254 490.799 9.30273C490.799 8.47852 491.061 7.81445 491.584 7.31055C492.107 6.80664 492.791 6.55469 493.635 6.55469C493.971 6.55469 494.34 6.58789 494.742 6.6543C495.148 6.7168 495.482 6.79297 495.744 6.88281L495.609 9.74805C495.609 10.291 495.758 10.5625 496.055 10.5625C496.305 10.5625 496.504 10.3809 496.652 10.0176C496.801 9.65039 496.875 9.17188 496.875 8.58203C496.875 7.95312 496.744 7.39844 496.482 6.91797C496.221 6.43359 495.852 6.06445 495.375 5.81055C494.902 5.55664 494.361 5.42969 493.752 5.42969C492.963 5.42969 492.277 5.5918 491.695 5.91602C491.113 6.24023 490.666 6.70898 490.354 7.32227C490.045 7.93164 489.891 8.63672 489.891 9.4375C489.891 10.5156 490.178 11.3438 490.752 11.9219C491.33 12.4961 492.166 12.7832 493.26 12.7832C493.674 12.7832 494.129 12.7383 494.625 12.6484C495.121 12.5547 495.609 12.4199 496.09 12.2441V13.3691C495.254 13.7246 494.326 13.9023 493.307 13.9023C491.822 13.9023 490.664 13.5117 489.832 12.7305C489.004 11.9492 488.59 10.8633 488.59 9.47266C488.59 8.50781 488.801 7.63281 489.223 6.84766C489.648 6.05859 490.252 5.44141 491.033 4.99609C491.818 4.54688 492.721 4.32227 493.74 4.32227C494.6 4.32227 495.367 4.49805 496.043 4.84961C496.719 5.20117 497.24 5.70117 497.607 6.34961C497.975 6.99805 498.158 7.74609 498.158 8.59375ZM492.158 9.32617C492.158 10.1504 492.494 10.5625 493.166 10.5625C493.518 10.5625 493.785 10.4395 493.969 10.1934C494.152 9.94336 494.264 9.53906 494.303 8.98047L494.379 7.68555C494.18 7.64258 493.955 7.62109 493.705 7.62109C493.217 7.62109 492.836 7.77344 492.562 8.07812C492.293 8.38281 492.158 8.79883 492.158 9.32617ZM505.564 13H503.777V9.17383C503.777 8.70117 503.697 8.34766 503.537 8.11328C503.381 7.875 503.133 7.75586 502.793 7.75586C502.336 7.75586 502.004 7.92383 501.797 8.25977C501.59 8.5957 501.486 9.14844 501.486 9.91797V13H499.699V6.44922H501.064L501.305 7.28711H501.404C501.58 6.98633 501.834 6.75195 502.166 6.58398C502.498 6.41211 502.879 6.32617 503.309 6.32617C504.289 6.32617 504.953 6.64648 505.301 7.28711H505.459C505.635 6.98242 505.893 6.74609 506.232 6.57812C506.576 6.41016 506.963 6.32617 507.393 6.32617C508.135 6.32617 508.695 6.51758 509.074 6.90039C509.457 7.2793 509.648 7.88867 509.648 8.72852V13H507.855V9.17383C507.855 8.70117 507.775 8.34766 507.615 8.11328C507.459 7.875 507.211 7.75586 506.871 7.75586C506.434 7.75586 506.105 7.91211 505.887 8.22461C505.672 8.53711 505.564 9.0332 505.564 9.71289V13ZM511.412 4.75586C511.412 4.17383 511.736 3.88281 512.385 3.88281C513.033 3.88281 513.357 4.17383 513.357 4.75586C513.357 5.0332 513.275 5.25 513.111 5.40625C512.951 5.55859 512.709 5.63477 512.385 5.63477C511.736 5.63477 511.412 5.3418 511.412 4.75586ZM513.275 13H511.488V6.44922H513.275V13ZM521.203 13H519.416V9.17383C519.416 8.70117 519.332 8.34766 519.164 8.11328C518.996 7.875 518.729 7.75586 518.361 7.75586C517.861 7.75586 517.5 7.92383 517.277 8.25977C517.055 8.5918 516.943 9.14453 516.943 9.91797V13H515.156V6.44922H516.521L516.762 7.28711H516.861C517.061 6.9707 517.334 6.73242 517.682 6.57227C518.033 6.4082 518.432 6.32617 518.877 6.32617C519.639 6.32617 520.217 6.5332 520.611 6.94727C521.006 7.35742 521.203 7.95117 521.203 8.72852V13ZM525.117 13.1172C524.348 13.1172 523.742 12.8184 523.301 12.2207C522.863 11.623 522.645 10.7949 522.645 9.73633C522.645 8.66211 522.867 7.82617 523.312 7.22852C523.762 6.62695 524.379 6.32617 525.164 6.32617C525.988 6.32617 526.617 6.64648 527.051 7.28711H527.109C527.02 6.79883 526.975 6.36328 526.975 5.98047V3.88281H528.768V13H527.396L527.051 12.1504H526.975C526.568 12.7949 525.949 13.1172 525.117 13.1172ZM525.744 11.6934C526.201 11.6934 526.535 11.5605 526.746 11.2949C526.961 11.0293 527.078 10.5781 527.098 9.94141V9.74805C527.098 9.04492 526.988 8.54102 526.77 8.23633C526.555 7.93164 526.203 7.7793 525.715 7.7793C525.316 7.7793 525.006 7.94922 524.783 8.28906C524.564 8.625 524.455 9.11523 524.455 9.75977C524.455 10.4043 524.566 10.8887 524.789 11.2129C525.012 11.5332 525.33 11.6934 525.744 11.6934ZM534.281 6.32617C535.055 6.32617 535.66 6.62891 536.098 7.23438C536.535 7.83594 536.754 8.66211 536.754 9.71289C536.754 10.7949 536.527 11.6328 536.074 12.2266C535.625 12.8203 535.012 13.1172 534.234 13.1172C533.465 13.1172 532.861 12.8379 532.424 12.2793H532.301L532.002 13H530.637V3.88281H532.424V6.00391C532.424 6.27344 532.4 6.70508 532.354 7.29883H532.424C532.842 6.65039 533.461 6.32617 534.281 6.32617ZM533.707 7.75586C533.266 7.75586 532.943 7.89258 532.74 8.16602C532.537 8.43555 532.432 8.88281 532.424 9.50781V9.70117C532.424 10.4043 532.527 10.9082 532.734 11.2129C532.945 11.5176 533.277 11.6699 533.73 11.6699C534.098 11.6699 534.389 11.502 534.604 11.166C534.822 10.8262 534.932 10.334 534.932 9.68945C534.932 9.04492 534.822 8.5625 534.604 8.24219C534.385 7.91797 534.086 7.75586 533.707 7.75586ZM540.018 13H538.23V3.88281H540.018V13ZM541.822 4.75586C541.822 4.17383 542.146 3.88281 542.795 3.88281C543.443 3.88281 543.768 4.17383 543.768 4.75586C543.768 5.0332 543.686 5.25 543.521 5.40625C543.361 5.55859 543.119 5.63477 542.795 5.63477C542.146 5.63477 541.822 5.3418 541.822 4.75586ZM543.686 13H541.898V6.44922H543.686V13ZM550.137 11.0547C550.137 11.7266 549.902 12.2383 549.434 12.5898C548.969 12.9414 548.271 13.1172 547.342 13.1172C546.865 13.1172 546.459 13.084 546.123 13.0176C545.787 12.9551 545.473 12.8613 545.18 12.7363V11.2598C545.512 11.416 545.885 11.5469 546.299 11.6523C546.717 11.7578 547.084 11.8105 547.4 11.8105C548.049 11.8105 548.373 11.623 548.373 11.248C548.373 11.1074 548.33 10.9941 548.244 10.9082C548.158 10.8184 548.01 10.7188 547.799 10.6094C547.588 10.4961 547.307 10.3652 546.955 10.2168C546.451 10.0059 546.08 9.81055 545.842 9.63086C545.607 9.45117 545.436 9.24609 545.326 9.01562C545.221 8.78125 545.168 8.49414 545.168 8.1543C545.168 7.57227 545.393 7.12305 545.842 6.80664C546.295 6.48633 546.936 6.32617 547.764 6.32617C548.553 6.32617 549.32 6.49805 550.066 6.8418L549.527 8.13086C549.199 7.99023 548.893 7.875 548.607 7.78516C548.322 7.69531 548.031 7.65039 547.734 7.65039C547.207 7.65039 546.943 7.79297 546.943 8.07812C546.943 8.23828 547.027 8.37695 547.195 8.49414C547.367 8.61133 547.74 8.78516 548.314 9.01562C548.826 9.22266 549.201 9.41602 549.439 9.5957C549.678 9.77539 549.854 9.98242 549.967 10.2168C550.08 10.4512 550.137 10.7305 550.137 11.0547ZM554.291 11.6934C554.604 11.6934 554.979 11.625 555.416 11.4883V12.8184C554.971 13.0176 554.424 13.1172 553.775 13.1172C553.061 13.1172 552.539 12.9375 552.211 12.5781C551.887 12.2148 551.725 11.6719 551.725 10.9492V7.79102H550.869V7.03516L551.854 6.4375L552.369 5.05469H553.512V6.44922H555.346V7.79102H553.512V10.9492C553.512 11.2031 553.582 11.3906 553.723 11.5117C553.867 11.6328 554.057 11.6934 554.291 11.6934ZM559.459 7.59766C559.08 7.59766 558.783 7.71875 558.568 7.96094C558.354 8.19922 558.23 8.53906 558.199 8.98047H560.707C560.699 8.53906 560.584 8.19922 560.361 7.96094C560.139 7.71875 559.838 7.59766 559.459 7.59766ZM559.711 13.1172C558.656 13.1172 557.832 12.8262 557.238 12.2441C556.645 11.6621 556.348 10.8379 556.348 9.77148C556.348 8.67383 556.621 7.82617 557.168 7.22852C557.719 6.62695 558.479 6.32617 559.447 6.32617C560.373 6.32617 561.094 6.58984 561.609 7.11719C562.125 7.64453 562.383 8.37305 562.383 9.30273V10.1699H558.158C558.178 10.6777 558.328 11.0742 558.609 11.3594C558.891 11.6445 559.285 11.7871 559.793 11.7871C560.188 11.7871 560.561 11.7461 560.912 11.6641C561.264 11.582 561.631 11.4512 562.014 11.2715V12.6543C561.701 12.8105 561.367 12.9258 561.012 13C560.656 13.0781 560.223 13.1172 559.711 13.1172ZM567.492 6.32617C567.734 6.32617 567.936 6.34375 568.096 6.37891L567.961 8.05469C567.816 8.01562 567.641 7.99609 567.434 7.99609C566.863 7.99609 566.418 8.14258 566.098 8.43555C565.781 8.72852 565.623 9.13867 565.623 9.66602V13H563.836V6.44922H565.189L565.453 7.55078H565.541C565.744 7.18359 566.018 6.88867 566.361 6.66602C566.709 6.43945 567.086 6.32617 567.492 6.32617ZM569.033 12.1621C569.033 11.834 569.121 11.5859 569.297 11.418C569.473 11.25 569.729 11.166 570.064 11.166C570.389 11.166 570.639 11.252 570.814 11.4238C570.994 11.5957 571.084 11.8418 571.084 12.1621C571.084 12.4707 570.994 12.7148 570.814 12.8945C570.635 13.0703 570.385 13.1582 570.064 13.1582C569.736 13.1582 569.482 13.0723 569.303 12.9004C569.123 12.7246 569.033 12.4785 569.033 12.1621ZM575.367 13.1172C573.328 13.1172 572.309 11.998 572.309 9.75977C572.309 8.64648 572.586 7.79688 573.141 7.21094C573.695 6.62109 574.49 6.32617 575.525 6.32617C576.283 6.32617 576.963 6.47461 577.564 6.77148L577.037 8.1543C576.756 8.04102 576.494 7.94922 576.252 7.87891C576.01 7.80469 575.768 7.76758 575.525 7.76758C574.596 7.76758 574.131 8.42773 574.131 9.74805C574.131 11.0293 574.596 11.6699 575.525 11.6699C575.869 11.6699 576.188 11.625 576.48 11.5352C576.773 11.4414 577.066 11.2969 577.359 11.1016V12.6309C577.07 12.8145 576.777 12.9414 576.48 13.0117C576.188 13.082 575.816 13.1172 575.367 13.1172ZM580.307 9.71289C580.307 10.3613 580.412 10.8516 580.623 11.1836C580.838 11.5156 581.186 11.6816 581.666 11.6816C582.143 11.6816 582.484 11.5176 582.691 11.1895C582.902 10.8574 583.008 10.3652 583.008 9.71289C583.008 9.06445 582.902 8.57812 582.691 8.25391C582.48 7.92969 582.135 7.76758 581.654 7.76758C581.178 7.76758 580.834 7.92969 580.623 8.25391C580.412 8.57422 580.307 9.06055 580.307 9.71289ZM584.836 9.71289C584.836 10.7793 584.555 11.6133 583.992 12.2148C583.43 12.8164 582.646 13.1172 581.643 13.1172C581.014 13.1172 580.459 12.9805 579.979 12.707C579.498 12.4297 579.129 12.0332 578.871 11.5176C578.613 11.002 578.484 10.4004 578.484 9.71289C578.484 8.64258 578.764 7.81055 579.322 7.2168C579.881 6.62305 580.666 6.32617 581.678 6.32617C582.307 6.32617 582.861 6.46289 583.342 6.73633C583.822 7.00977 584.191 7.40234 584.449 7.91406C584.707 8.42578 584.836 9.02539 584.836 9.71289ZM592.178 13H590.391V9.17383C590.391 8.70117 590.311 8.34766 590.15 8.11328C589.994 7.875 589.746 7.75586 589.406 7.75586C588.949 7.75586 588.617 7.92383 588.41 8.25977C588.203 8.5957 588.1 9.14844 588.1 9.91797V13H586.312V6.44922H587.678L587.918 7.28711H588.018C588.193 6.98633 588.447 6.75195 588.779 6.58398C589.111 6.41211 589.492 6.32617 589.922 6.32617C590.902 6.32617 591.566 6.64648 591.914 7.28711H592.072C592.248 6.98242 592.506 6.74609 592.846 6.57812C593.189 6.41016 593.576 6.32617 594.006 6.32617C594.748 6.32617 595.309 6.51758 595.688 6.90039C596.07 7.2793 596.262 7.88867 596.262 8.72852V13H594.469V9.17383C594.469 8.70117 594.389 8.34766 594.229 8.11328C594.072 7.875 593.824 7.75586 593.484 7.75586C593.047 7.75586 592.719 7.91211 592.5 8.22461C592.285 8.53711 592.178 9.0332 592.178 9.71289V13Z" fill="#333333" fill-opacity="0.5"/>
</svg>
